<?xml version="1.0" encoding="UTF-8" standalone="no"?>
<svg
   xmlns:dc="http://purl.org/dc/elements/1.1/"
   xmlns:cc="http://creativecommons.org/ns#"
   xmlns:rdf="http://www.w3.org/1999/02/22-rdf-syntax-ns#"
   xmlns:svg="http://www.w3.org/2000/svg"
   xmlns="http://www.w3.org/2000/svg"
   xmlns:sodipodi="http://sodipodi.sourceforge.net/DTD/sodipodi-0.dtd"
   xmlns:inkscape="http://www.inkscape.org/namespaces/inkscape"
   version="1.0"
   width="275.60001pt"
   height="274.61917pt"
   viewBox="0 0 275.60001 274.61917"
   preserveAspectRatio="xMidYMid meet"
   id="svg12"
   sodipodi:docname="4star.svg"
   inkscape:version="0.92.5 (2060ec1f9f, 2020-04-08)">
  <metadata
     id="metadata18">
    <rdf:RDF>
      <cc:Work
         rdf:about="">
        <dc:format>image/svg+xml</dc:format>
        <dc:type
           rdf:resource="http://purl.org/dc/dcmitype/StillImage" />
        <dc:title></dc:title>
      </cc:Work>
    </rdf:RDF>
  </metadata>
  <defs
     id="defs16" />
  <sodipodi:namedview
     pagecolor="#ffffff"
     bordercolor="#666666"
     borderopacity="1"
     objecttolerance="10"
     gridtolerance="10"
     guidetolerance="10"
     inkscape:pageopacity="0"
     inkscape:pageshadow="2"
     inkscape:window-width="2048"
     inkscape:window-height="1088"
     id="namedview14"
     showgrid="false"
     fit-margin-top="0"
     fit-margin-left="0"
     fit-margin-right="0"
     fit-margin-bottom="0"
     inkscape:zoom="0.61458333"
     inkscape:cx="159.32655"
     inkscape:cy="184"
     inkscape:window-x="0"
     inkscape:window-y="27"
     inkscape:window-maximized="1"
     inkscape:current-layer="svg12" />
  <g
     transform="matrix(0.1,0,0,-0.1,-6.7,280.61916)"
     id="g10"
     style="fill:#1a1a1a;stroke:none">
    <path
       d="m 2680,2799 c -352,-27 -679,-139 -887,-303 -158,-126 -228,-294 -202,-486 59,-419 569,-586 870,-285 194,194 341,606 351,985 3,78 0,95 -12,96 -8,1 -62,-2 -120,-7 z"
       id="path2"
       inkscape:connector-curvature="0"
       style="fill:#1a1a1a" />
    <path
       d="m 74,2698 c 34,-500 221,-924 469,-1062 283,-158 642,-16 737,292 34,111 25,261 -23,373 -62,142 -260,293 -507,386 -158,60 -443,113 -602,113 H 67 Z"
       id="path4"
       inkscape:connector-curvature="0"
       style="fill:#1a1a1a" />
    <path
       d="m 693,1286 c -34,-7 -95,-29 -137,-49 C 306,1113 106,671 74,173 L 67,60 h 39 c 62,0 292,28 372,45 349,73 623,220 741,396 115,172 109,413 -15,586 -24,34 -64,78 -87,97 -58,48 -160,93 -238,106 -78,12 -106,12 -186,-4 z"
       id="path6"
       inkscape:connector-curvature="0"
       style="fill:#1a1a1a" />
    <path
       d="m 2000,1289 c -74,-13 -189,-68 -244,-119 -225,-207 -226,-563 -3,-768 101,-91 289,-194 455,-246 154,-48 442,-95 591,-96 h 24 l -7,103 c -36,527 -236,961 -501,1083 -69,31 -173,55 -231,53 -16,-1 -54,-5 -84,-10 z"
       id="path8"
       inkscape:connector-curvature="0"
       style="fill:#1a1a1a" />
  </g>
</svg>
